<?xml version="1.0" encoding="UTF-8"?>
<svg width="275px" height="181px" viewBox="0 0 275 181" version="1.1" xmlns="http://www.w3.org/2000/svg" xmlns:xlink="http://www.w3.org/1999/xlink">
    <title>tibi logo</title>
    <defs>
        <path d="M35.4513981,102.61518 C38.8672881,102.61518 43.0217488,102.384376 47.9147803,101.92277 L47.9147803,101.92277 L47.9147803,79.0732357 C45.1451398,79.2578784 43.2525522,79.3501997 42.2370173,79.3501997 C39.8366622,79.3501997 37.9902352,79.027075 36.6977364,78.3808256 C35.4052375,77.7345761 34.758988,76.6728806 34.758988,75.195739 L34.758988,75.195739 L34.758988,54.8388815 L47.6378162,54.8388815 L47.6378162,32.6817577 L34.758988,32.6817577 L34.758988,10.2476698 L9.8322237,18.5565912 L9.8322237,32.6817577 L0,32.6817577 L0,54.8388815 L9.8322237,54.8388815 L9.8322237,76.9960053 C9.8322237,86.689747 11.9556147,93.3830448 16.2023968,97.0758988 C20.4491789,100.768753 26.8655126,102.61518 35.4513981,102.61518 Z M67.0908231,27.5579228 C71.6145692,27.5579228 75.1689411,26.3346649 77.7539389,23.8881491 C80.3389367,21.4416334 81.6314356,18.0949845 81.6314356,13.8482024 C81.6314356,9.60142033 80.3389367,6.23169108 77.7539389,3.73901465 C75.1689411,1.24633822 71.6145692,0 67.0908231,0 C62.5670769,0 59.012705,1.24633822 56.4277072,3.73901465 C53.8427094,6.23169108 52.5502105,9.60142033 52.5502105,13.8482024 C52.5502105,18.0949845 53.8427094,21.4416334 56.4277072,23.8881491 C59.012705,26.3346649 62.5670769,27.5579228 67.0908231,27.5579228 Z M79.5542052,101.92277 L79.5542052,32.6817577 L54.6274409,32.6817577 L54.6274409,101.92277 L79.5542052,101.92277 Z M131.550488,104 C142.62905,104 151.168774,100.653351 157.169662,93.9600533 C163.17055,87.2667554 166.170994,78.4269862 166.170994,67.4407457 C166.170994,56.3621838 163.17055,47.4531735 157.169662,40.713715 C151.168774,33.9742565 142.62905,30.6045273 131.550488,30.6045273 C124.441744,30.6045273 117.794607,32.774079 111.609076,37.1131824 L111.609076,37.1131824 L111.609076,4.98535286 L86.6823119,4.98535286 L86.6823119,101.92277 L111.609076,101.92277 L111.609076,97.6298269 C117.886928,101.876609 124.534065,104 131.550488,104 Z M128.088437,80.3195739 C124.026298,80.3195739 120.656568,79.1193964 117.979249,76.7190413 C115.30193,74.3186862 113.963271,71.1335996 113.963271,67.1637816 C113.963271,63.286285 115.30193,60.2396804 117.979249,58.023968 C120.656568,55.8082557 124.026298,54.7003995 128.088437,54.7003995 C132.058255,54.7003995 135.243342,55.831336 137.643697,58.0932091 C140.044052,60.3550821 141.244229,63.4709277 141.244229,67.4407457 C141.244229,71.502885 140.044052,74.6648913 137.643697,76.9267643 C135.243342,79.1886374 132.058255,80.3195739 128.088437,80.3195739 Z M184.867435,27.5579228 C189.391181,27.5579228 192.945553,26.3346649 195.53055,23.8881491 C198.115548,21.4416334 199.408047,18.0949845 199.408047,13.8482024 C199.408047,9.60142033 198.115548,6.23169108 195.53055,3.73901465 C192.945553,1.24633822 189.391181,0 184.867435,0 C180.343688,0 176.789317,1.24633822 174.204319,3.73901465 C171.619321,6.23169108 170.326822,9.60142033 170.326822,13.8482024 C170.326822,18.0949845 171.619321,21.4416334 174.204319,23.8881491 C176.789317,26.3346649 180.343688,27.5579228 184.867435,27.5579228 Z M197.330817,101.92277 L197.330817,32.6817577 L172.404052,32.6817577 L172.404052,101.92277 L197.330817,101.92277 Z" id="path-1"></path>
        <filter x="-32.6%" y="-52.9%" width="165.2%" height="225.0%" filterUnits="objectBoundingBox" id="filter-2">
            <feOffset dx="0" dy="10" in="SourceAlpha" result="shadowOffsetOuter1"></feOffset>
            <feGaussianBlur stdDeviation="20" in="shadowOffsetOuter1" result="shadowBlurOuter1"></feGaussianBlur>
            <feColorMatrix values="0 0 0 0 0.407843137   0 0 0 0 0.0235294118   0 0 0 0 0.945098039  0 0 0 0.2 0" type="matrix" in="shadowBlurOuter1"></feColorMatrix>
        </filter>
    </defs>
    <g id="Icon-&amp;-Splash" stroke="none" stroke-width="1" fill="none" fill-rule="evenodd">
        <g id="Splash-01" transform="translate(-50.000000, -304.000000)" fill-rule="nonzero">
            <g id="tibi" transform="translate(88.153422, 332.411226)">
                <use fill="black" fill-opacity="1" filter="url(#filter-2)" xlink:href="#path-1"></use>
                <use fill="#FFFFFF" xlink:href="#path-1"></use>
            </g>
        </g>
    </g>
</svg>